<svg xmlns="http://www.w3.org/2000/svg" width="14" height="13"><defs><clipPath id="a"><path fill="#fff" d="M966.75 652c3.5 0 6.35 2.91 6.35 6.5s-2.84 6.5-6.35 6.5a6.42 6.42 0 0 1-6.34-6.5c0-3.59 2.84-6.5 6.34-6.5z"/></clipPath></defs><path fill="none" d="M6.75 0c3.5 0 6.35 2.91 6.35 6.5S10.26 13 6.75 13A6.42 6.42 0 0 1 .41 6.5C.41 2.91 3.25 0 6.75 0z"/><path fill="none" stroke="#ff8261" stroke-linecap="round" stroke-linejoin="round" stroke-miterlimit="50" stroke-width="4" d="M966.75 652c3.5 0 6.35 2.91 6.35 6.5s-2.84 6.5-6.35 6.5a6.42 6.42 0 0 1-6.34-6.5c0-3.59 2.84-6.5 6.34-6.5z" clip-path="url(&quot;#a&quot;)" transform="translate(-960 -652)"/></svg>